<?xml version="1.0" standalone="no"?>
<!DOCTYPE svg PUBLIC "-//W3C//DTD SVG 20010904//EN"
 "http://www.w3.org/TR/2001/REC-SVG-20010904/DTD/svg10.dtd">
<svg version="1.0" xmlns="http://www.w3.org/2000/svg"
 width="512.000000pt" height="512.000000pt" viewBox="0 0 512.000000 512.000000"
 preserveAspectRatio="xMidYMid meet">
<metadata>
Created by potrace 1.14, written by Peter Selinger 2001-2017
</metadata>
<g transform="translate(0.000000,512.000000) scale(0.100000,-0.100000)"
fill="#000000" stroke="none">
<path d="M0 2560 l0 -2560 2560 0 2560 0 0 2560 0 2560 -2560 0 -2560 0 0
-2560z m2910 1300 l0 -200 -30 0 -30 0 0 170 0 170 -865 0 -865 0 0 -1440 0
-1440 865 0 865 0 0 170 0 170 30 0 30 0 0 -200 0 -200 -925 0 -925 0 0 1500
0 1500 925 0 925 0 0 -200z m-380 -585 l0 -185 -39 0 c-34 0 -40 4 -49 30 -16
44 -85 142 -128 179 -64 57 -91 63 -291 69 l-183 5 0 -288 0 -287 118 4 c106
4 123 7 164 31 36 21 53 40 77 88 17 34 33 76 37 95 6 32 9 34 45 34 l39 0 0
-305 0 -305 -39 0 c-37 0 -39 2 -46 36 -9 50 -52 144 -78 173 -37 40 -84 53
-204 59 l-113 5 1 -244 c1 -272 8 -320 52 -353 26 -19 42 -21 205 -21 230 0
252 7 323 108 28 40 71 111 95 160 43 84 45 87 79 87 41 0 39 23 22 -265 l-12
-190 -663 -3 -663 -2 3 42 3 43 57 6 c77 8 116 26 133 60 22 42 22 1116 0
1159 -15 30 -80 60 -157 74 -36 7 -38 9 -38 46 l0 40 625 0 625 0 0 -185z
m1530 -25 l0 -210 -37 0 c-38 1 -38 1 -85 98 -53 111 -106 185 -147 207 -16 8
-74 17 -135 21 l-107 7 3 -607 3 -608 31 -27 c21 -19 51 -32 95 -40 35 -7 70
-15 77 -17 7 -2 12 -20 12 -44 l0 -40 -392 2 -393 3 -3 37 c-3 41 -5 41 93 53
64 9 98 27 113 60 9 19 12 182 12 625 l0 600 -57 -1 c-32 0 -85 -4 -117 -8
-56 -7 -63 -11 -110 -62 -46 -50 -108 -157 -136 -231 -8 -24 -15 -28 -50 -28
l-40 0 0 210 0 210 685 0 685 0 0 -210z m-2440 -1427 l0 -27 -20 22 c-12 12
-32 22 -45 22 -23 0 -25 -4 -25 -45 0 -51 18 -60 44 -23 16 22 16 21 16 -22
-1 -36 -3 -41 -11 -27 -5 9 -19 17 -29 17 -17 0 -20 -7 -20 -45 0 -45 0 -45
34 -45 26 0 39 7 55 28 l20 27 1 -32 0 -33 -87 1 c-49 0 -82 3 -75 6 16 6 17
174 0 191 -9 9 5 12 65 12 77 0 77 0 77 -27z m91 18 c-12 -8 -11 -19 8 -73 13
-34 26 -66 30 -71 4 -4 18 23 31 59 22 65 23 67 5 80 -16 12 -2 14 103 14
l122 0 0 -27 0 -27 -21 23 c-14 14 -30 21 -47 19 -23 -3 -27 -8 -30 -41 -4
-47 22 -62 50 -28 l18 23 -1 -48 c0 -43 -2 -46 -11 -26 -7 14 -20 22 -35 22
-22 0 -24 -3 -21 -42 3 -42 4 -43 40 -46 32 -3 40 1 50 22 19 42 34 34 22 -11
-6 -22 -11 -23 -93 -22 -47 1 -78 3 -68 6 16 4 17 15 15 96 -3 80 -5 92 -22
95 -26 5 -33 -5 -70 -104 -19 -48 -38 -90 -43 -91 -6 -2 -25 38 -43 89 -18 51
-40 98 -49 105 -13 10 -8 12 29 13 30 0 40 -3 31 -9z m479 -11 c26 -26 25 -36
-5 -66 l-25 -25 30 -44 c16 -24 35 -46 42 -48 7 -3 1 -6 -14 -6 -21 -1 -34 9
-58 44 -17 25 -35 45 -40 45 -15 0 -12 -78 3 -83 6 -3 -8 -5 -33 -5 -25 0 -39
2 -32 5 16 6 17 174 0 191 -9 9 2 12 50 12 49 0 66 -4 82 -20z m121 11 c-13
-8 -12 -15 4 -50 20 -46 33 -43 56 10 10 26 10 32 -2 40 -10 6 -2 9 25 9 l40
0 -23 -22 c-13 -11 -35 -45 -48 -75 -27 -58 -25 -98 5 -106 9 -3 -8 -5 -38 -5
-30 0 -47 2 -37 5 39 10 0 163 -50 192 -14 8 -7 10 32 11 34 0 45 -3 36 -9z
m290 -29 c32 -36 37 -77 15 -121 -20 -37 -56 -51 -129 -50 -34 1 -54 3 -44 6
14 4 17 17 17 92 0 56 -4 92 -12 100 -11 11 -1 12 56 9 62 -4 71 -7 97 -36z
m179 -49 c18 -49 39 -96 48 -105 14 -17 12 -18 -29 -18 -29 0 -39 3 -30 9 9 6
11 18 7 35 -5 22 -12 26 -45 26 -32 0 -40 -4 -45 -22 -4 -15 0 -27 11 -35 14
-11 12 -13 -20 -13 l-38 0 20 28 c10 15 31 62 46 105 15 42 31 77 35 77 4 0
22 -39 40 -87z m128 76 c-17 -9 -17 -12 3 -51 l21 -42 19 25 c27 35 33 60 18
70 -9 6 0 9 26 9 39 0 40 -1 19 -18 -32 -26 -74 -105 -74 -140 0 -19 7 -35 18
-41 13 -8 5 -10 -33 -10 -27 1 -42 3 -32 6 40 11 3 147 -52 190 -13 10 -7 12
34 12 39 0 46 -2 33 -10z m362 -21 l-1 -33 -20 28 c-39 51 -49 37 -49 -67 0
-82 2 -95 18 -99 9 -3 -8 -5 -38 -5 -30 0 -47 2 -37 5 15 4 17 17 17 99 0 104
-10 118 -49 67 l-20 -28 -1 33 0 32 90 0 90 0 0 -32z m170 5 l0 -27 -21 23
c-14 14 -30 21 -47 19 -23 -3 -27 -8 -30 -41 -4 -47 22 -62 50 -28 l18 23 -1
-48 c0 -43 -2 -46 -11 -26 -7 14 -20 22 -35 22 -22 0 -24 -3 -21 -42 3 -42 4
-43 40 -46 32 -3 40 1 50 22 19 42 34 34 22 -11 -6 -22 -11 -23 -93 -22 -47 1
-78 3 -68 6 15 4 17 17 17 93 0 74 -3 91 -17 99 -13 8 4 10 65 11 l82 0 0 -27z
m199 -18 l0 -40 -16 32 c-26 53 -79 56 -101 7 -43 -93 34 -198 98 -134 26 26
34 26 18 0 -27 -42 -89 -48 -130 -12 -43 37 -40 131 5 173 17 16 33 19 74 17
l53 -3 -1 -40z m96 29 c-10 -10 -15 -29 -13 -48 3 -29 5 -31 51 -34 l47 -3 0
40 c0 28 -5 43 -17 50 -14 8 -7 10 32 10 39 0 46 -2 33 -10 -15 -8 -18 -25
-18 -94 0 -69 3 -86 18 -94 13 -8 5 -10 -33 -10 -27 1 -42 3 -32 6 13 3 17 15
17 49 l0 44 -50 0 -50 0 0 -40 c0 -27 6 -42 18 -49 13 -8 7 -10 -28 -10 -25 0
-39 3 -32 6 16 6 17 174 0 191 -9 9 -3 12 31 12 39 0 41 -1 26 -16z"/>
<path d="M2110 1795 c0 -37 3 -45 18 -45 41 0 59 60 23 80 -34 18 -41 11 -41
-35z"/>
<path d="M2492 1749 c3 -94 3 -94 30 -97 42 -5 68 28 68 87 0 58 -21 88 -68
97 l-33 7 3 -94z"/>
<path d="M2721 1777 c-17 -44 -14 -57 14 -57 28 0 29 2 10 50 l-13 35 -11 -28z"/>
</g>
</svg>
